%TF.GenerationSoftware,Altium Limited,Altium Designer,21.4.1 (30)*%
G04 Layer_Physical_Order=2*
G04 Layer_Color=16711680*
%FSLAX42Y42*%
%MOMM*%
%TF.SameCoordinates,A5F8CCB8-1AD9-4863-A32E-EE0D6D21C85A*%
%TF.FilePolarity,Positive*%
%TF.FileFunction,Copper,L2,Bot,Signal*%
%TF.Part,Single*%
G01*
G75*
%TA.AperFunction,ComponentPad*%
%ADD49O,1.75X2.50*%
%TA.AperFunction,ViaPad*%
%ADD50C,3.20*%
%ADD51C,0.80*%
G36*
X2900Y-2900D02*
X-2900D01*
Y2900D01*
X2900D01*
Y-2900D01*
D02*
G37*
%LPC*%
G36*
X2450Y2636D02*
X2414Y2633D01*
X2379Y2622D01*
X2347Y2605D01*
X2318Y2582D01*
X2295Y2554D01*
X2278Y2521D01*
X2267Y2486D01*
X2264Y2450D01*
X2267Y2414D01*
X2278Y2379D01*
X2295Y2346D01*
X2318Y2318D01*
X2347Y2295D01*
X2379Y2278D01*
X2414Y2267D01*
X2450Y2264D01*
X2486Y2267D01*
X2521Y2278D01*
X2554Y2295D01*
X2582Y2318D01*
X2605Y2346D01*
X2622Y2379D01*
X2633Y2414D01*
X2636Y2450D01*
X2633Y2486D01*
X2622Y2521D01*
X2605Y2554D01*
X2582Y2582D01*
X2554Y2605D01*
X2521Y2622D01*
X2486Y2633D01*
X2450Y2636D01*
D02*
G37*
G36*
X-2450D02*
X-2486Y2633D01*
X-2521Y2622D01*
X-2554Y2605D01*
X-2582Y2582D01*
X-2605Y2554D01*
X-2622Y2521D01*
X-2633Y2486D01*
X-2636Y2450D01*
X-2633Y2414D01*
X-2622Y2379D01*
X-2605Y2346D01*
X-2582Y2318D01*
X-2554Y2295D01*
X-2521Y2278D01*
X-2486Y2267D01*
X-2450Y2264D01*
X-2414Y2267D01*
X-2379Y2278D01*
X-2346Y2295D01*
X-2318Y2318D01*
X-2295Y2346D01*
X-2278Y2379D01*
X-2267Y2414D01*
X-2264Y2450D01*
X-2267Y2486D01*
X-2278Y2521D01*
X-2295Y2554D01*
X-2318Y2582D01*
X-2346Y2605D01*
X-2379Y2622D01*
X-2414Y2633D01*
X-2450Y2636D01*
D02*
G37*
G36*
X2450Y-2264D02*
X2414Y-2267D01*
X2379Y-2278D01*
X2347Y-2295D01*
X2318Y-2318D01*
X2295Y-2346D01*
X2278Y-2379D01*
X2267Y-2414D01*
X2264Y-2450D01*
X2267Y-2486D01*
X2278Y-2521D01*
X2295Y-2554D01*
X2318Y-2582D01*
X2347Y-2605D01*
X2379Y-2622D01*
X2414Y-2633D01*
X2450Y-2636D01*
X2486Y-2633D01*
X2521Y-2622D01*
X2554Y-2605D01*
X2582Y-2582D01*
X2605Y-2554D01*
X2622Y-2521D01*
X2633Y-2486D01*
X2636Y-2450D01*
X2633Y-2414D01*
X2622Y-2379D01*
X2605Y-2346D01*
X2582Y-2318D01*
X2554Y-2295D01*
X2521Y-2278D01*
X2486Y-2267D01*
X2450Y-2264D01*
D02*
G37*
G36*
X-2450D02*
X-2486Y-2267D01*
X-2521Y-2278D01*
X-2554Y-2295D01*
X-2582Y-2318D01*
X-2605Y-2346D01*
X-2622Y-2379D01*
X-2633Y-2414D01*
X-2636Y-2450D01*
X-2633Y-2486D01*
X-2622Y-2521D01*
X-2605Y-2554D01*
X-2582Y-2582D01*
X-2554Y-2605D01*
X-2521Y-2622D01*
X-2486Y-2633D01*
X-2450Y-2636D01*
X-2414Y-2633D01*
X-2379Y-2622D01*
X-2346Y-2605D01*
X-2318Y-2582D01*
X-2295Y-2554D01*
X-2278Y-2521D01*
X-2267Y-2486D01*
X-2264Y-2450D01*
X-2267Y-2414D01*
X-2278Y-2379D01*
X-2295Y-2346D01*
X-2318Y-2318D01*
X-2346Y-2295D01*
X-2379Y-2278D01*
X-2414Y-2267D01*
X-2450Y-2264D01*
D02*
G37*
G36*
X-112Y-2534D02*
Y-2658D01*
X-23D01*
Y-2645D01*
X-27Y-2616D01*
X-38Y-2588D01*
X-56Y-2564D01*
X-80Y-2546D01*
X-108Y-2535D01*
X-112Y-2534D01*
D02*
G37*
G36*
X-162D02*
X-166Y-2535D01*
X-194Y-2546D01*
X-218Y-2564D01*
X-236Y-2588D01*
X-247Y-2616D01*
X-251Y-2645D01*
Y-2658D01*
X-162D01*
Y-2534D01*
D02*
G37*
G36*
X-23Y-2708D02*
X-112D01*
Y-2831D01*
X-108Y-2830D01*
X-80Y-2819D01*
X-56Y-2801D01*
X-38Y-2777D01*
X-27Y-2749D01*
X-23Y-2720D01*
Y-2708D01*
D02*
G37*
G36*
X-162D02*
X-251D01*
Y-2720D01*
X-247Y-2749D01*
X-236Y-2777D01*
X-218Y-2801D01*
X-194Y-2819D01*
X-166Y-2830D01*
X-162Y-2831D01*
Y-2708D01*
D02*
G37*
G36*
X117Y-2531D02*
X88Y-2535D01*
X60Y-2546D01*
X36Y-2564D01*
X18Y-2588D01*
X7Y-2616D01*
X3Y-2645D01*
Y-2720D01*
X7Y-2749D01*
X18Y-2777D01*
X36Y-2801D01*
X60Y-2819D01*
X88Y-2830D01*
X117Y-2834D01*
X146Y-2830D01*
X174Y-2819D01*
X198Y-2801D01*
X216Y-2777D01*
X227Y-2749D01*
X231Y-2720D01*
Y-2645D01*
X227Y-2616D01*
X216Y-2588D01*
X198Y-2564D01*
X174Y-2546D01*
X146Y-2535D01*
X117Y-2531D01*
D02*
G37*
%LPD*%
D49*
Y-2683D02*
D03*
X-137D02*
D03*
D50*
X-2450Y2450D02*
D03*
X2450D02*
D03*
Y-2450D02*
D03*
X-2450D02*
D03*
D51*
X2670Y1633D02*
D03*
Y933D02*
D03*
Y233D02*
D03*
Y-467D02*
D03*
Y-1167D02*
D03*
Y-1867D02*
D03*
X2495Y1983D02*
D03*
X2320Y1633D02*
D03*
X2495Y1283D02*
D03*
X2320Y933D02*
D03*
X2495Y583D02*
D03*
Y-117D02*
D03*
X2320Y-467D02*
D03*
X2495Y-817D02*
D03*
X2320Y-1167D02*
D03*
X2495Y-1517D02*
D03*
X2145Y2683D02*
D03*
Y1283D02*
D03*
Y583D02*
D03*
X1970Y-467D02*
D03*
Y-1167D02*
D03*
X2145Y-1517D02*
D03*
X1970Y-2567D02*
D03*
X1795Y2683D02*
D03*
X1620Y2333D02*
D03*
X1795Y1283D02*
D03*
X1620Y-1167D02*
D03*
Y-1867D02*
D03*
Y-2567D02*
D03*
X1445Y2683D02*
D03*
X1270Y2333D02*
D03*
X1445Y1983D02*
D03*
X1270Y-1867D02*
D03*
X1445Y-2217D02*
D03*
X1270Y-2567D02*
D03*
X1095Y2683D02*
D03*
X920Y2333D02*
D03*
Y1633D02*
D03*
X1095Y-1517D02*
D03*
Y-2217D02*
D03*
X920Y-2567D02*
D03*
X745Y2683D02*
D03*
X570Y2333D02*
D03*
Y-2567D02*
D03*
X395Y2683D02*
D03*
Y1983D02*
D03*
Y-817D02*
D03*
Y-2217D02*
D03*
X45Y2683D02*
D03*
X-130Y-1867D02*
D03*
X-305Y2683D02*
D03*
X-480Y2333D02*
D03*
X-305Y1983D02*
D03*
Y1283D02*
D03*
X-480Y-1867D02*
D03*
X-305Y-2217D02*
D03*
X-480Y-2567D02*
D03*
X-655Y2683D02*
D03*
X-830Y2333D02*
D03*
X-655Y-2217D02*
D03*
X-830Y-2567D02*
D03*
X-1005Y2683D02*
D03*
X-1180Y2333D02*
D03*
Y1633D02*
D03*
X-1005Y-1517D02*
D03*
X-1180Y-1867D02*
D03*
X-1005Y-2217D02*
D03*
X-1180Y-2567D02*
D03*
X-1355Y2683D02*
D03*
X-1530Y2333D02*
D03*
X-1355Y1983D02*
D03*
X-1530Y-1867D02*
D03*
X-1355Y-2217D02*
D03*
X-1705Y2683D02*
D03*
Y1283D02*
D03*
Y583D02*
D03*
X-1880Y-467D02*
D03*
Y-1167D02*
D03*
Y-1867D02*
D03*
X-1705Y-2217D02*
D03*
X-2055Y2683D02*
D03*
X-2230Y1633D02*
D03*
X-2055Y1283D02*
D03*
X-2230Y933D02*
D03*
Y-467D02*
D03*
Y-1167D02*
D03*
X-2055Y-1517D02*
D03*
X-2230Y-1867D02*
D03*
X-2405Y1983D02*
D03*
X-2580Y1633D02*
D03*
X-2405Y1283D02*
D03*
X-2580Y933D02*
D03*
X-2405Y583D02*
D03*
X-2580Y233D02*
D03*
Y-467D02*
D03*
X-2405Y-817D02*
D03*
X-2580Y-1167D02*
D03*
X-2405Y-1517D02*
D03*
X-2580Y-1867D02*
D03*
%TF.MD5,0098c255529b3b5809215bf96df85ab0*%
M02*
