%TF.GenerationSoftware,Altium Limited,Altium Designer,21.4.1 (30)*%
G04 Layer_Color=32896*
%FSLAX42Y42*%
%MOMM*%
%TF.SameCoordinates,A5F8CCB8-1AD9-4863-A32E-EE0D6D21C85A*%
%TF.FilePolarity,Positive*%
%TF.FileFunction,Other,Mechanical_20*%
%TF.Part,Single*%
G01*
G75*
%TA.AperFunction,NonConductor*%
%ADD90C,0.10*%
D90*
X-1939Y-469D02*
X-1658Y-956D01*
X-2004Y-1156D02*
X-1658Y-956D01*
X-2286Y-669D02*
X-2004Y-1156D01*
X-2286Y-669D02*
X-1939Y-469D01*
X-981Y1007D02*
X-520Y1330D01*
X-291Y1002D01*
X-752Y680D02*
X-291Y1002D01*
X-981Y1007D02*
X-752Y680D01*
X-1356Y449D02*
X-1074Y936D01*
X-728Y736D01*
X-1009Y249D02*
X-728Y736D01*
X-1356Y449D02*
X-1009Y249D01*
X-1315Y-460D02*
X-992Y-921D01*
X-1315Y-460D02*
X-987Y-231D01*
X-665Y-692D01*
X-992Y-921D02*
X-665Y-692D01*
X-939Y-963D02*
X-542Y-1361D01*
X-939Y-963D02*
X-657Y-681D01*
X-259Y-1078D01*
X-542Y-1361D02*
X-259Y-1078D01*
X950Y-237D02*
Y325D01*
X550Y-237D02*
X950D01*
X550D02*
Y325D01*
X950D01*
X-550Y-237D02*
Y325D01*
X-950Y-237D02*
X-550D01*
X-950D02*
Y325D01*
X-550D01*
X-325Y950D02*
X237D01*
Y550D02*
Y950D01*
X-325Y550D02*
X237D01*
X-325D02*
Y950D01*
Y-550D02*
X237D01*
Y-950D02*
Y-550D01*
X-325Y-950D02*
X237D01*
X-325D02*
Y-550D01*
X402Y871D02*
X799Y473D01*
X517Y191D02*
X799Y473D01*
X119Y588D02*
X517Y191D01*
X119Y588D02*
X402Y871D01*
X447Y-814D02*
X845Y-416D01*
X164Y-531D02*
X447Y-814D01*
X164Y-531D02*
X562Y-133D01*
X845Y-416D01*
X301Y1913D02*
X788Y1632D01*
X588Y1286D02*
X788Y1632D01*
X101Y1567D02*
X588Y1286D01*
X101Y1567D02*
X301Y1913D01*
X-636Y1732D02*
X-499Y1356D01*
X29Y1548D01*
X-108Y1924D02*
X29Y1548D01*
X-636Y1732D02*
X-108Y1924D01*
X-325Y1000D02*
Y1400D01*
Y1000D02*
X237D01*
Y1400D01*
X-325D02*
X237D01*
X-325Y-1400D02*
Y-1000D01*
Y-1400D02*
X237D01*
Y-1000D01*
X-325D02*
X237D01*
X-1400Y325D02*
X-1000D01*
X-1400Y-237D02*
Y325D01*
Y-237D02*
X-1000D01*
Y325D01*
X1400Y-237D02*
Y325D01*
X1000Y-237D02*
X1400D01*
X1000D02*
Y325D01*
X1400D01*
X1007Y981D02*
X1330Y520D01*
X1002Y291D02*
X1330Y520D01*
X680Y752D02*
X1002Y291D01*
X680Y752D02*
X1007Y981D01*
X480Y1392D02*
X910Y1031D01*
X653Y724D02*
X910Y1031D01*
X222Y1086D02*
X653Y724D01*
X222Y1086D02*
X480Y1392D01*
X1089Y-944D02*
X1371Y-456D01*
X743Y-744D02*
X1089Y-944D01*
X743Y-744D02*
X1024Y-256D01*
X1371Y-456D01*
X550Y-1370D02*
X1011Y-1047D01*
X321Y-1042D02*
X550Y-1370D01*
X321Y-1042D02*
X782Y-720D01*
X1011Y-1047D01*
X-1736Y680D02*
X-1374Y511D01*
X-1136Y1021D01*
X-1498Y1190D02*
X-1136Y1021D01*
X-1736Y680D02*
X-1498Y1190D01*
X-1860Y-250D02*
X-1460D01*
Y312D01*
X-1860D02*
X-1460D01*
X-1860Y-250D02*
Y312D01*
X-1742Y-494D02*
X-1461Y-981D01*
X-1742Y-494D02*
X-1396Y-294D01*
X-1114Y-781D01*
X-1461Y-981D02*
X-1114Y-781D01*
X-1357Y-1128D02*
X-959Y-1526D01*
X-1357Y-1128D02*
X-1074Y-846D01*
X-676Y-1243D01*
X-959Y-1526D02*
X-676Y-1243D01*
X-829Y-443D02*
X-432Y-841D01*
X-829Y-443D02*
X-547Y-161D01*
X-149Y-558D01*
X-432Y-841D02*
X-149Y-558D01*
X538Y-1915D02*
X998Y-1592D01*
X308Y-1587D02*
X538Y-1915D01*
X308Y-1587D02*
X769Y-1265D01*
X998Y-1592D01*
X1191Y-1497D02*
X1589Y-1099D01*
X908Y-1214D02*
X1191Y-1497D01*
X908Y-1214D02*
X1306Y-816D01*
X1589Y-1099D01*
X1696Y-980D02*
X1934Y-470D01*
X1333Y-811D02*
X1696Y-980D01*
X1333Y-811D02*
X1571Y-301D01*
X1934Y-470D01*
X1535Y392D02*
X1935D01*
X1535Y-170D02*
Y392D01*
Y-170D02*
X1935D01*
Y392D01*
X1444Y1143D02*
X1806Y712D01*
X1499Y455D02*
X1806Y712D01*
X1138Y885D02*
X1499Y455D01*
X1138Y885D02*
X1444Y1143D01*
X-1843Y558D02*
X-1651Y1087D01*
X-2219Y695D02*
X-1843Y558D01*
X-2219Y695D02*
X-2027Y1224D01*
X-1651Y1087D01*
X-956Y1658D02*
X-469Y1939D01*
X-1156Y2004D02*
X-956Y1658D01*
X-1156Y2004D02*
X-669Y2286D01*
X-469Y1939D01*
X657Y2279D02*
X1154Y2015D01*
X966Y1662D02*
X1154Y2015D01*
X469Y1926D02*
X966Y1662D01*
X469Y1926D02*
X657Y2279D01*
X-1809Y-1473D02*
X-1412Y-1871D01*
X-1809Y-1473D02*
X-1527Y-1191D01*
X-1129Y-1588D01*
X-1412Y-1871D02*
X-1129Y-1588D01*
X-1331Y1327D02*
X-870Y1650D01*
X-641Y1322D01*
X-1102Y1000D02*
X-641Y1322D01*
X-1331Y1327D02*
X-1102Y1000D01*
X938Y1605D02*
X1336Y1207D01*
X1053Y924D02*
X1336Y1207D01*
X655Y1322D02*
X1053Y924D01*
X655Y1322D02*
X938Y1605D01*
X770Y-2250D02*
X1231Y-1927D01*
X541Y-1922D02*
X770Y-2250D01*
X541Y-1922D02*
X1002Y-1600D01*
X1231Y-1927D01*
X2057Y-1142D02*
X2249Y-613D01*
X1681Y-1005D02*
X2057Y-1142D01*
X1681Y-1005D02*
X1873Y-476D01*
X2249Y-613D01*
X1961Y1231D02*
X2242Y744D01*
X1896Y544D02*
X2242Y744D01*
X1614Y1031D02*
X1896Y544D01*
X1614Y1031D02*
X1961Y1231D01*
X-922Y-1575D02*
X-461Y-1898D01*
X-922Y-1575D02*
X-692Y-1247D01*
X-232Y-1570D01*
X-461Y-1898D02*
X-232Y-1570D01*
X-2000Y-237D02*
Y325D01*
X-2400Y-237D02*
X-2000D01*
X-2400D02*
Y325D01*
X-2000D01*
X2400Y-237D02*
Y325D01*
X2000Y-237D02*
X2400D01*
X2000D02*
Y325D01*
X2400D01*
X-325Y2400D02*
X237D01*
Y2000D02*
Y2400D01*
X-325Y2000D02*
X237D01*
X-325D02*
Y2400D01*
X-387Y904D02*
X-104Y621D01*
X-784Y506D02*
X-387Y904D01*
X-784Y506D02*
X-502Y223D01*
X-104Y621D01*
X1412Y1871D02*
X1809Y1473D01*
X1527Y1191D02*
X1809Y1473D01*
X1129Y1588D02*
X1527Y1191D01*
X1129Y1588D02*
X1412Y1871D01*
X1473Y-1809D02*
X1871Y-1412D01*
X1191Y-1527D02*
X1473Y-1809D01*
X1191Y-1527D02*
X1588Y-1129D01*
X1871Y-1412D01*
X-1527Y1191D02*
X-1129Y1588D01*
X-1809Y1473D02*
X-1527Y1191D01*
X-1809Y1473D02*
X-1412Y1871D01*
X-1129Y1588D01*
X-1156Y-2004D02*
X-669Y-2286D01*
X-1156Y-2004D02*
X-956Y-1658D01*
X-469Y-1939D01*
X-669Y-2286D02*
X-469Y-1939D01*
%TF.MD5,f656ca3bc88920cd1cce50b73474fce4*%
M02*
