M48
;Layer_Color=9474304
;FILE_FORMAT=4:2
METRIC,LZ
;TYPE=PLATED
T1F00S00C0.50
T2F00S00C1.10
T3F00S00C3.00
%
T01
X-00258Y-001867
X-00223
X-00188
X-00153
X-00118
X-001005Y-001517
Y-002217
X-000655
X-000305
X-00048Y-001867
X-00013
X000395Y-002217
X00057Y-002567
X-00048
X-00083
X-00118
X-001355Y-002217
X-001705
X-002055Y-001517
X-002405
X001095
X00127Y-001867
X00162
X001445Y-002217
X001095
X00092Y-002567
X00127
X00162
X00197
X002145Y-001517
X002495
X00267Y-001867
Y-001167
X00232
X00197
X00162
X00197Y-000467
X00232
X00267
X002495Y-000117
X00267Y000233
X002495Y000583
X002145
X00232Y000933
X00267
X002495Y001283
X002145
X001795
X00232Y001633
X00267
X002495Y001983
X001445
X00127Y002333
X00162
X00092
Y001633
X002495Y-000817
X000395
X-00188Y-000467
X-00223
X-00258
X-002405Y-000817
X-00258Y-001167
X-00223
X-00188
X-001705Y000583
Y001283
X-002055
X-002405
X-00258Y001633
X-00223
X-002405Y001983
X-001355
X-00153Y002333
X-00118
X-00083
X-00048
X-000305Y001983
X000395
X00057Y002333
X-000305Y001283
X-00118Y001633
X-00223Y000933
X-00258
X-002405Y000583
X-00258Y000233
X-002055Y002683
X-001705
X-001355
X-001005
X-000655
X-000305
X000045
X000395
X000745
X001095
X001445
X001795
X002145
T02
X-000137Y-002683
X000117
T03
X-00245Y-00245
X00245
Y00245
X-00245
M30
