%TF.GenerationSoftware,Altium Limited,Altium Designer,21.4.1 (30)*%
G04 Layer_Color=32768*
%FSLAX42Y42*%
%MOMM*%
%TF.SameCoordinates,A5F8CCB8-1AD9-4863-A32E-EE0D6D21C85A*%
%TF.FilePolarity,Positive*%
%TF.FileFunction,Other,Mechanical_15*%
%TF.Part,Single*%
G01*
G75*
%TA.AperFunction,NonConductor*%
%ADD52C,0.20*%
D52*
X320Y-2312D02*
X320Y-3012D01*
X-330Y-2312D02*
X320D01*
X-330Y-2972D02*
Y-2312D01*
Y-3052D02*
Y-2972D01*
Y-3052D02*
X320D01*
X320Y-3012D01*
X-60Y-2683D02*
X40D01*
X-10Y-2732D02*
Y-2632D01*
X-2105Y-781D02*
X-1968Y-1019D01*
X-1795Y-919D01*
X-1932Y-681D02*
X-1795Y-919D01*
X-2105Y-781D02*
X-1932Y-681D01*
X-655Y869D02*
X-430Y1027D01*
X-545Y1191D02*
X-430Y1027D01*
X-770Y1033D02*
X-545Y1191D01*
X-770Y1033D02*
X-655Y869D01*
X-1002Y461D02*
X-865Y699D01*
X-1038Y799D02*
X-865Y699D01*
X-1175Y561D02*
X-1038Y799D01*
X-1175Y561D02*
X-1002Y461D01*
X-1012Y-370D02*
X-854Y-595D01*
X-1176Y-485D02*
X-1012Y-370D01*
X-1176Y-485D02*
X-1018Y-710D01*
X-854Y-595D01*
X-657Y-822D02*
X-462Y-1017D01*
X-798Y-963D02*
X-657Y-822D01*
X-798Y-963D02*
X-603Y-1158D01*
X-462Y-1017D01*
X650Y-137D02*
Y138D01*
Y-137D02*
X850D01*
Y138D01*
X650D02*
X850D01*
X-850Y-137D02*
Y138D01*
Y-137D02*
X-650D01*
Y138D01*
X-850D02*
X-650D01*
X-138Y650D02*
X137D01*
Y850D01*
X-138D02*
X137D01*
X-138Y650D02*
Y850D01*
Y-850D02*
X137D01*
Y-650D01*
X-138D02*
X137D01*
X-138Y-850D02*
Y-650D01*
X322Y527D02*
X517Y332D01*
X658Y473D01*
X463Y668D02*
X658Y473D01*
X322Y527D02*
X463Y668D01*
X305Y-531D02*
X500Y-336D01*
X305Y-531D02*
X447Y-672D01*
X641Y-478D01*
X500Y-336D02*
X641Y-478D01*
X313Y1560D02*
X552Y1422D01*
X652Y1595D01*
X413Y1733D02*
X652Y1595D01*
X313Y1560D02*
X413Y1733D01*
X-426Y1702D02*
X-358Y1514D01*
X-426Y1702D02*
X-167Y1796D01*
X-99Y1608D01*
X-358Y1514D02*
X-99Y1608D01*
X-138Y1100D02*
Y1300D01*
X137D01*
Y1100D02*
Y1300D01*
X-138Y1100D02*
X137D01*
X-138Y-1300D02*
Y-1100D01*
X137D01*
Y-1300D02*
Y-1100D01*
X-138Y-1300D02*
X137D01*
X-1300Y138D02*
X-1100D01*
Y-137D02*
Y138D01*
X-1300Y-137D02*
X-1100D01*
X-1300D02*
Y138D01*
X1100Y-137D02*
Y138D01*
Y-137D02*
X1300D01*
Y138D01*
X1100D02*
X1300D01*
X869Y655D02*
X1027Y430D01*
X1191Y545D01*
X1033Y770D02*
X1191Y545D01*
X869Y655D02*
X1033Y770D01*
X430Y1042D02*
X641Y865D01*
X770Y1018D01*
X559Y1195D02*
X770Y1018D01*
X430Y1042D02*
X559Y1195D01*
X880Y-707D02*
X1017Y-469D01*
X880Y-707D02*
X1053Y-807D01*
X1190Y-569D01*
X1017Y-469D02*
X1190Y-569D01*
X460Y-1067D02*
X685Y-909D01*
X460Y-1067D02*
X575Y-1231D01*
X800Y-1073D01*
X685Y-909D02*
X800Y-1073D01*
X-1566Y808D02*
X-1385Y723D01*
X-1566Y808D02*
X-1450Y1057D01*
X-1269Y972D01*
X-1385Y723D02*
X-1269Y972D01*
X-1760Y-63D02*
X-1560D01*
X-1760D02*
Y212D01*
X-1560D01*
Y-63D02*
Y212D01*
X-1432Y-431D02*
X-1295Y-669D01*
X-1605Y-531D02*
X-1432Y-431D01*
X-1605Y-531D02*
X-1468Y-769D01*
X-1295Y-669D01*
X-1074Y-987D02*
X-880Y-1182D01*
X-1215Y-1128D02*
X-1074Y-987D01*
X-1215Y-1128D02*
X-1021Y-1323D01*
X-880Y-1182D01*
X-547Y-302D02*
X-352Y-497D01*
X-688Y-443D02*
X-547Y-302D01*
X-688Y-443D02*
X-493Y-638D01*
X-352Y-497D01*
X448Y-1612D02*
X673Y-1454D01*
X448Y-1612D02*
X562Y-1776D01*
X787Y-1618D01*
X673Y-1454D02*
X787Y-1618D01*
X1050Y-1214D02*
X1244Y-1020D01*
X1050Y-1214D02*
X1191Y-1355D01*
X1385Y-1161D01*
X1244Y-1020D02*
X1385Y-1161D01*
X1466Y-762D02*
X1582Y-513D01*
X1466Y-762D02*
X1648Y-847D01*
X1764Y-598D01*
X1582Y-513D02*
X1764Y-598D01*
X1635Y205D02*
X1835D01*
Y-70D02*
Y205D01*
X1635Y-70D02*
X1835D01*
X1635D02*
Y205D01*
X1335Y806D02*
X1512Y595D01*
X1665Y724D01*
X1488Y935D02*
X1665Y724D01*
X1335Y806D02*
X1488Y935D01*
X-2091Y755D02*
X-1997Y1013D01*
X-2091Y755D02*
X-1903Y687D01*
X-1809Y945D01*
X-1997Y1013D02*
X-1809Y945D01*
X-1019Y1968D02*
X-781Y2105D01*
X-1019Y1968D02*
X-919Y1795D01*
X-681Y1932D01*
X-781Y2105D02*
X-681Y1932D01*
X682Y1926D02*
X924Y1797D01*
X1018Y1974D01*
X776Y2103D02*
X1018Y1974D01*
X682Y1926D02*
X776Y2103D01*
X-1527Y-1332D02*
X-1332Y-1527D01*
X-1668Y-1473D02*
X-1527Y-1332D01*
X-1668Y-1473D02*
X-1473Y-1668D01*
X-1332Y-1527D01*
X-1005Y1189D02*
X-780Y1347D01*
X-895Y1511D02*
X-780Y1347D01*
X-1120Y1353D02*
X-895Y1511D01*
X-1120Y1353D02*
X-1005Y1189D01*
X858Y1260D02*
X1053Y1065D01*
X1194Y1207D01*
X1000Y1401D02*
X1194Y1207D01*
X858Y1260D02*
X1000Y1401D01*
X680Y-1947D02*
X905Y-1789D01*
X680Y-1947D02*
X795Y-2111D01*
X1020Y-1953D01*
X905Y-1789D02*
X1020Y-1953D01*
X1809Y-945D02*
X1903Y-687D01*
X1809Y-945D02*
X1997Y-1013D01*
X2091Y-755D01*
X1903Y-687D02*
X2091Y-755D01*
X1795Y919D02*
X1932Y681D01*
X2105Y781D01*
X1968Y1019D02*
X2105Y781D01*
X1795Y919D02*
X1968Y1019D01*
X-668Y-1387D02*
X-443Y-1544D01*
X-782Y-1551D02*
X-668Y-1387D01*
X-782Y-1551D02*
X-557Y-1708D01*
X-443Y-1544D01*
X-2300Y-137D02*
Y138D01*
Y-137D02*
X-2100D01*
Y138D01*
X-2300D02*
X-2100D01*
X2100Y-137D02*
Y138D01*
Y-137D02*
X2300D01*
Y138D01*
X2100D02*
X2300D01*
X-138Y2100D02*
X137D01*
Y2300D01*
X-138D02*
X137D01*
X-138Y2100D02*
Y2300D01*
X-448Y700D02*
X-307Y559D01*
X-502Y365D02*
X-307Y559D01*
X-643Y506D02*
X-502Y365D01*
X-643Y506D02*
X-448Y700D01*
X1332Y1527D02*
X1527Y1332D01*
X1668Y1473D01*
X1473Y1668D02*
X1668Y1473D01*
X1332Y1527D02*
X1473Y1668D01*
X1332Y-1527D02*
X1527Y-1332D01*
X1332Y-1527D02*
X1473Y-1668D01*
X1668Y-1473D01*
X1527Y-1332D02*
X1668Y-1473D01*
X-1668Y1473D02*
X-1473Y1668D01*
X-1668Y1473D02*
X-1527Y1332D01*
X-1332Y1527D01*
X-1473Y1668D02*
X-1332Y1527D01*
X-919Y-1795D02*
X-681Y-1932D01*
X-1019Y-1968D02*
X-919Y-1795D01*
X-1019Y-1968D02*
X-781Y-2105D01*
X-681Y-1932D01*
%TF.MD5,5858f84919fc3cb5a8f583082d76b3e9*%
M02*
