%TF.GenerationSoftware,Altium Limited,Altium Designer,21.4.1 (30)*%
G04 Layer_Color=255*
%FSLAX42Y42*%
%MOMM*%
%TF.SameCoordinates,A5F8CCB8-1AD9-4863-A32E-EE0D6D21C85A*%
%TF.FilePolarity,Positive*%
%TF.FileFunction,Pads,Top*%
%TF.Part,Single*%
G01*
G75*
%TA.AperFunction,SMDPad,CuDef*%
G04:AMPARAMS|DCode=11|XSize=1.2mm|YSize=0.5mm|CornerRadius=0mm|HoleSize=0mm|Usage=FLASHONLY|Rotation=30.000|XOffset=0mm|YOffset=0mm|HoleType=Round|Shape=Rectangle|*
%AMROTATEDRECTD11*
4,1,4,-0.39,-0.52,-0.64,-0.08,0.39,0.52,0.64,0.08,-0.39,-0.52,0.0*
%
%ADD11ROTATEDRECTD11*%

G04:AMPARAMS|DCode=12|XSize=1.6mm|YSize=1.5mm|CornerRadius=0mm|HoleSize=0mm|Usage=FLASHONLY|Rotation=30.000|XOffset=0mm|YOffset=0mm|HoleType=Round|Shape=Rectangle|*
%AMROTATEDRECTD12*
4,1,4,-0.32,-1.05,-1.07,0.25,0.32,1.05,1.07,-0.25,-0.32,-1.05,0.0*
%
%ADD12ROTATEDRECTD12*%

G04:AMPARAMS|DCode=13|XSize=1.2mm|YSize=0.5mm|CornerRadius=0mm|HoleSize=0mm|Usage=FLASHONLY|Rotation=125.000|XOffset=0mm|YOffset=0mm|HoleType=Round|Shape=Rectangle|*
%AMROTATEDRECTD13*
4,1,4,0.55,-0.35,0.14,-0.63,-0.55,0.35,-0.14,0.63,0.55,-0.35,0.0*
%
%ADD13ROTATEDRECTD13*%

G04:AMPARAMS|DCode=14|XSize=1.6mm|YSize=1.5mm|CornerRadius=0mm|HoleSize=0mm|Usage=FLASHONLY|Rotation=125.000|XOffset=0mm|YOffset=0mm|HoleType=Round|Shape=Rectangle|*
%AMROTATEDRECTD14*
4,1,4,1.07,-0.23,-0.16,-1.09,-1.07,0.23,0.16,1.09,1.07,-0.23,0.0*
%
%ADD14ROTATEDRECTD14*%

G04:AMPARAMS|DCode=15|XSize=1.2mm|YSize=0.5mm|CornerRadius=0mm|HoleSize=0mm|Usage=FLASHONLY|Rotation=150.000|XOffset=0mm|YOffset=0mm|HoleType=Round|Shape=Rectangle|*
%AMROTATEDRECTD15*
4,1,4,0.64,-0.08,0.39,-0.52,-0.64,0.08,-0.39,0.52,0.64,-0.08,0.0*
%
%ADD15ROTATEDRECTD15*%

G04:AMPARAMS|DCode=16|XSize=1.6mm|YSize=1.5mm|CornerRadius=0mm|HoleSize=0mm|Usage=FLASHONLY|Rotation=150.000|XOffset=0mm|YOffset=0mm|HoleType=Round|Shape=Rectangle|*
%AMROTATEDRECTD16*
4,1,4,1.07,0.25,0.32,-1.05,-1.07,-0.25,-0.32,1.05,1.07,0.25,0.0*
%
%ADD16ROTATEDRECTD16*%

G04:AMPARAMS|DCode=17|XSize=1.2mm|YSize=0.5mm|CornerRadius=0mm|HoleSize=0mm|Usage=FLASHONLY|Rotation=215.000|XOffset=0mm|YOffset=0mm|HoleType=Round|Shape=Rectangle|*
%AMROTATEDRECTD17*
4,1,4,0.35,0.55,0.63,0.14,-0.35,-0.55,-0.63,-0.14,0.35,0.55,0.0*
%
%ADD17ROTATEDRECTD17*%

G04:AMPARAMS|DCode=18|XSize=1.6mm|YSize=1.5mm|CornerRadius=0mm|HoleSize=0mm|Usage=FLASHONLY|Rotation=215.000|XOffset=0mm|YOffset=0mm|HoleType=Round|Shape=Rectangle|*
%AMROTATEDRECTD18*
4,1,4,0.23,1.07,1.09,-0.16,-0.23,-1.07,-1.09,0.16,0.23,1.07,0.0*
%
%ADD18ROTATEDRECTD18*%

G04:AMPARAMS|DCode=19|XSize=1.2mm|YSize=0.5mm|CornerRadius=0mm|HoleSize=0mm|Usage=FLASHONLY|Rotation=225.000|XOffset=0mm|YOffset=0mm|HoleType=Round|Shape=Rectangle|*
%AMROTATEDRECTD19*
4,1,4,0.25,0.60,0.60,0.25,-0.25,-0.60,-0.60,-0.25,0.25,0.60,0.0*
%
%ADD19ROTATEDRECTD19*%

G04:AMPARAMS|DCode=20|XSize=1.6mm|YSize=1.5mm|CornerRadius=0mm|HoleSize=0mm|Usage=FLASHONLY|Rotation=225.000|XOffset=0mm|YOffset=0mm|HoleType=Round|Shape=Rectangle|*
%AMROTATEDRECTD20*
4,1,4,0.04,1.10,1.10,0.04,-0.04,-1.10,-1.10,-0.04,0.04,1.10,0.0*
%
%ADD20ROTATEDRECTD20*%

%ADD21R,1.20X0.50*%
%ADD22R,1.60X1.50*%
%ADD23R,0.50X1.20*%
%ADD24R,1.50X1.60*%
G04:AMPARAMS|DCode=25|XSize=1.2mm|YSize=0.5mm|CornerRadius=0mm|HoleSize=0mm|Usage=FLASHONLY|Rotation=315.000|XOffset=0mm|YOffset=0mm|HoleType=Round|Shape=Rectangle|*
%AMROTATEDRECTD25*
4,1,4,-0.60,0.25,-0.25,0.60,0.60,-0.25,0.25,-0.60,-0.60,0.25,0.0*
%
%ADD25ROTATEDRECTD25*%

G04:AMPARAMS|DCode=26|XSize=1.6mm|YSize=1.5mm|CornerRadius=0mm|HoleSize=0mm|Usage=FLASHONLY|Rotation=315.000|XOffset=0mm|YOffset=0mm|HoleType=Round|Shape=Rectangle|*
%AMROTATEDRECTD26*
4,1,4,-1.10,0.04,-0.04,1.10,1.10,-0.04,0.04,-1.10,-1.10,0.04,0.0*
%
%ADD26ROTATEDRECTD26*%

G04:AMPARAMS|DCode=27|XSize=1.2mm|YSize=0.5mm|CornerRadius=0mm|HoleSize=0mm|Usage=FLASHONLY|Rotation=60.000|XOffset=0mm|YOffset=0mm|HoleType=Round|Shape=Rectangle|*
%AMROTATEDRECTD27*
4,1,4,-0.08,-0.64,-0.52,-0.39,0.08,0.64,0.52,0.39,-0.08,-0.64,0.0*
%
%ADD27ROTATEDRECTD27*%

G04:AMPARAMS|DCode=28|XSize=1.6mm|YSize=1.5mm|CornerRadius=0mm|HoleSize=0mm|Usage=FLASHONLY|Rotation=60.000|XOffset=0mm|YOffset=0mm|HoleType=Round|Shape=Rectangle|*
%AMROTATEDRECTD28*
4,1,4,0.25,-1.07,-1.05,-0.32,-0.25,1.07,1.05,0.32,0.25,-1.07,0.0*
%
%ADD28ROTATEDRECTD28*%

G04:AMPARAMS|DCode=29|XSize=1.6mm|YSize=1.5mm|CornerRadius=0mm|HoleSize=0mm|Usage=FLASHONLY|Rotation=110.000|XOffset=0mm|YOffset=0mm|HoleType=Round|Shape=Rectangle|*
%AMROTATEDRECTD29*
4,1,4,0.98,-0.50,-0.43,-1.01,-0.98,0.50,0.43,1.01,0.98,-0.50,0.0*
%
%ADD29ROTATEDRECTD29*%

G04:AMPARAMS|DCode=30|XSize=1.2mm|YSize=0.5mm|CornerRadius=0mm|HoleSize=0mm|Usage=FLASHONLY|Rotation=110.000|XOffset=0mm|YOffset=0mm|HoleType=Round|Shape=Rectangle|*
%AMROTATEDRECTD30*
4,1,4,0.44,-0.48,-0.03,-0.65,-0.44,0.48,0.03,0.65,0.44,-0.48,0.0*
%
%ADD30ROTATEDRECTD30*%

G04:AMPARAMS|DCode=31|XSize=1.2mm|YSize=0.5mm|CornerRadius=0mm|HoleSize=0mm|Usage=FLASHONLY|Rotation=50.000|XOffset=0mm|YOffset=0mm|HoleType=Round|Shape=Rectangle|*
%AMROTATEDRECTD31*
4,1,4,-0.19,-0.62,-0.58,-0.30,0.19,0.62,0.58,0.30,-0.19,-0.62,0.0*
%
%ADD31ROTATEDRECTD31*%

G04:AMPARAMS|DCode=32|XSize=1.6mm|YSize=1.5mm|CornerRadius=0mm|HoleSize=0mm|Usage=FLASHONLY|Rotation=50.000|XOffset=0mm|YOffset=0mm|HoleType=Round|Shape=Rectangle|*
%AMROTATEDRECTD32*
4,1,4,0.06,-1.09,-1.09,-0.13,-0.06,1.09,1.09,0.13,0.06,-1.09,0.0*
%
%ADD32ROTATEDRECTD32*%

G04:AMPARAMS|DCode=33|XSize=1.6mm|YSize=1.5mm|CornerRadius=0mm|HoleSize=0mm|Usage=FLASHONLY|Rotation=155.000|XOffset=0mm|YOffset=0mm|HoleType=Round|Shape=Rectangle|*
%AMROTATEDRECTD33*
4,1,4,1.04,0.34,0.41,-1.02,-1.04,-0.34,-0.41,1.02,1.04,0.34,0.0*
%
%ADD33ROTATEDRECTD33*%

G04:AMPARAMS|DCode=34|XSize=1.2mm|YSize=0.5mm|CornerRadius=0mm|HoleSize=0mm|Usage=FLASHONLY|Rotation=155.000|XOffset=0mm|YOffset=0mm|HoleType=Round|Shape=Rectangle|*
%AMROTATEDRECTD34*
4,1,4,0.65,-0.03,0.44,-0.48,-0.65,0.03,-0.44,0.48,0.65,-0.03,0.0*
%
%ADD34ROTATEDRECTD34*%

G04:AMPARAMS|DCode=35|XSize=1.2mm|YSize=0.5mm|CornerRadius=0mm|HoleSize=0mm|Usage=FLASHONLY|Rotation=40.000|XOffset=0mm|YOffset=0mm|HoleType=Round|Shape=Rectangle|*
%AMROTATEDRECTD35*
4,1,4,-0.30,-0.58,-0.62,-0.19,0.30,0.58,0.62,0.19,-0.30,-0.58,0.0*
%
%ADD35ROTATEDRECTD35*%

G04:AMPARAMS|DCode=36|XSize=1.6mm|YSize=1.5mm|CornerRadius=0mm|HoleSize=0mm|Usage=FLASHONLY|Rotation=40.000|XOffset=0mm|YOffset=0mm|HoleType=Round|Shape=Rectangle|*
%AMROTATEDRECTD36*
4,1,4,-0.13,-1.09,-1.09,0.06,0.13,1.09,1.09,-0.06,-0.13,-1.09,0.0*
%
%ADD36ROTATEDRECTD36*%

G04:AMPARAMS|DCode=37|XSize=1.2mm|YSize=0.5mm|CornerRadius=0mm|HoleSize=0mm|Usage=FLASHONLY|Rotation=340.000|XOffset=0mm|YOffset=0mm|HoleType=Round|Shape=Rectangle|*
%AMROTATEDRECTD37*
4,1,4,-0.65,-0.03,-0.48,0.44,0.65,0.03,0.48,-0.44,-0.65,-0.03,0.0*
%
%ADD37ROTATEDRECTD37*%

G04:AMPARAMS|DCode=38|XSize=1.6mm|YSize=1.5mm|CornerRadius=0mm|HoleSize=0mm|Usage=FLASHONLY|Rotation=340.000|XOffset=0mm|YOffset=0mm|HoleType=Round|Shape=Rectangle|*
%AMROTATEDRECTD38*
4,1,4,-1.01,-0.43,-0.50,0.98,1.01,0.43,0.50,-0.98,-1.01,-0.43,0.0*
%
%ADD38ROTATEDRECTD38*%

G04:AMPARAMS|DCode=39|XSize=1.2mm|YSize=0.5mm|CornerRadius=0mm|HoleSize=0mm|Usage=FLASHONLY|Rotation=300.000|XOffset=0mm|YOffset=0mm|HoleType=Round|Shape=Rectangle|*
%AMROTATEDRECTD39*
4,1,4,-0.52,0.39,-0.08,0.64,0.52,-0.39,0.08,-0.64,-0.52,0.39,0.0*
%
%ADD39ROTATEDRECTD39*%

G04:AMPARAMS|DCode=40|XSize=1.6mm|YSize=1.5mm|CornerRadius=0mm|HoleSize=0mm|Usage=FLASHONLY|Rotation=300.000|XOffset=0mm|YOffset=0mm|HoleType=Round|Shape=Rectangle|*
%AMROTATEDRECTD40*
4,1,4,-1.05,0.32,0.25,1.07,1.05,-0.32,-0.25,-1.07,-1.05,0.32,0.0*
%
%ADD40ROTATEDRECTD40*%

G04:AMPARAMS|DCode=41|XSize=1.2mm|YSize=0.5mm|CornerRadius=0mm|HoleSize=0mm|Usage=FLASHONLY|Rotation=62.000|XOffset=0mm|YOffset=0mm|HoleType=Round|Shape=Rectangle|*
%AMROTATEDRECTD41*
4,1,4,-0.06,-0.65,-0.50,-0.41,0.06,0.65,0.50,0.41,-0.06,-0.65,0.0*
%
%ADD41ROTATEDRECTD41*%

G04:AMPARAMS|DCode=42|XSize=1.6mm|YSize=1.5mm|CornerRadius=0mm|HoleSize=0mm|Usage=FLASHONLY|Rotation=62.000|XOffset=0mm|YOffset=0mm|HoleType=Round|Shape=Rectangle|*
%AMROTATEDRECTD42*
4,1,4,0.29,-1.06,-1.04,-0.35,-0.29,1.06,1.04,0.35,0.29,-1.06,0.0*
%
%ADD42ROTATEDRECTD42*%

G04:AMPARAMS|DCode=43|XSize=1.2mm|YSize=0.5mm|CornerRadius=0mm|HoleSize=0mm|Usage=FLASHONLY|Rotation=235.000|XOffset=0mm|YOffset=0mm|HoleType=Round|Shape=Rectangle|*
%AMROTATEDRECTD43*
4,1,4,0.14,0.63,0.55,0.35,-0.14,-0.63,-0.55,-0.35,0.14,0.63,0.0*
%
%ADD43ROTATEDRECTD43*%

G04:AMPARAMS|DCode=44|XSize=1.6mm|YSize=1.5mm|CornerRadius=0mm|HoleSize=0mm|Usage=FLASHONLY|Rotation=235.000|XOffset=0mm|YOffset=0mm|HoleType=Round|Shape=Rectangle|*
%AMROTATEDRECTD44*
4,1,4,-0.16,1.09,1.07,0.23,0.16,-1.09,-1.07,-0.23,-0.16,1.09,0.0*
%
%ADD44ROTATEDRECTD44*%

%ADD45C,1.00*%
%TA.AperFunction,ComponentPad*%
%ADD49O,1.75X2.50*%
%TA.AperFunction,ViaPad*%
%ADD50C,3.20*%
D11*
X-1995Y-772D02*
D03*
X-1405Y-678D02*
D03*
X1905Y928D02*
D03*
D12*
X-1930Y-885D02*
D03*
X-1470Y-565D02*
D03*
X1970Y815D02*
D03*
D13*
X-674Y978D02*
D03*
X704Y-1018D02*
D03*
X691Y-1563D02*
D03*
X-1024Y1298D02*
D03*
X924Y-1898D02*
D03*
D14*
X-567Y1053D02*
D03*
X597Y-1093D02*
D03*
X585Y-1638D02*
D03*
X-917Y1373D02*
D03*
X817Y-1973D02*
D03*
D15*
X-1065Y552D02*
D03*
X1080Y-560D02*
D03*
D16*
X-1000Y665D02*
D03*
X1015Y-673D02*
D03*
D17*
X-963Y-614D02*
D03*
X978Y674D02*
D03*
D18*
X-1038Y-507D02*
D03*
X1053Y567D02*
D03*
D19*
X-566Y-1054D02*
D03*
X426Y564D02*
D03*
X-984Y-1219D02*
D03*
X-456Y-534D02*
D03*
X-1436Y-1564D02*
D03*
X963Y1297D02*
D03*
X1436Y1564D02*
D03*
D20*
X-658Y-962D02*
D03*
X518Y472D02*
D03*
X-1076Y-1127D02*
D03*
X-548Y-442D02*
D03*
X-1528Y-1472D02*
D03*
X1055Y1205D02*
D03*
X1528Y1472D02*
D03*
D21*
X750Y90D02*
D03*
X-750D02*
D03*
X-1200D02*
D03*
X1200D02*
D03*
X-1660Y-15D02*
D03*
X1735Y158D02*
D03*
X-2200Y90D02*
D03*
X2200D02*
D03*
D22*
X750Y-40D02*
D03*
X-750D02*
D03*
X-1200D02*
D03*
X1200D02*
D03*
X-1660Y115D02*
D03*
X1735Y28D02*
D03*
X-2200Y-40D02*
D03*
X2200D02*
D03*
D23*
X-90Y750D02*
D03*
Y-750D02*
D03*
Y1200D02*
D03*
Y-1200D02*
D03*
Y2200D02*
D03*
D24*
X40Y750D02*
D03*
Y-750D02*
D03*
Y1200D02*
D03*
Y-1200D02*
D03*
Y2200D02*
D03*
D25*
X537Y-441D02*
D03*
X1281Y-1124D02*
D03*
X-411Y596D02*
D03*
X1564Y-1436D02*
D03*
X-1436Y1564D02*
D03*
D26*
X445Y-532D02*
D03*
X1189Y-1216D02*
D03*
X-503Y504D02*
D03*
X1472Y-1528D02*
D03*
X-1528Y1472D02*
D03*
D27*
X405Y1622D02*
D03*
X-772Y-1995D02*
D03*
D28*
X517Y1557D02*
D03*
X-885Y-1930D02*
D03*
D29*
X-225Y1669D02*
D03*
D30*
X-347Y1624D02*
D03*
D31*
X531Y1088D02*
D03*
D32*
X631Y1004D02*
D03*
D33*
X-1401Y926D02*
D03*
X1598Y-716D02*
D03*
D34*
X-1456Y808D02*
D03*
X1653Y-598D02*
D03*
D35*
X1442Y834D02*
D03*
D36*
X1526Y734D02*
D03*
D37*
X-1919Y935D02*
D03*
X1981Y-765D02*
D03*
D38*
X-1964Y812D02*
D03*
X1936Y-888D02*
D03*
D39*
X-772Y1995D02*
D03*
D40*
X-885Y1930D02*
D03*
D41*
X771Y1992D02*
D03*
D42*
X885Y1931D02*
D03*
D43*
X-539Y-1599D02*
D03*
D44*
X-645Y-1525D02*
D03*
D45*
X2000Y-2000D02*
D03*
Y2000D02*
D03*
X-2000D02*
D03*
D49*
X117Y-2683D02*
D03*
X-137D02*
D03*
D50*
X-2450Y2450D02*
D03*
X2450D02*
D03*
Y-2450D02*
D03*
X-2450D02*
D03*
%TF.MD5,6db9e60880dd5f1c4c4cf4df0d750d1d*%
M02*
